<?xml version="1.0" encoding="iso-8859-1"?>
<!-- Uploaded to: SVG Repo, www.svgrepo.com, Generator: SVG Repo Mixer Tools -->
<!DOCTYPE svg PUBLIC "-//W3C//DTD SVG 1.1//EN" "http://www.w3.org/Graphics/SVG/1.1/DTD/svg11.dtd">
<svg height="800px" width="800px" version="1.1" id="Capa_1" xmlns="http://www.w3.org/2000/svg" xmlns:xlink="http://www.w3.org/1999/xlink" 
	 viewBox="0 0 133.464 133.464" xml:space="preserve">
<g>
	<g>
		<path style="fill:#FFC847;" d="M50.94,93.344c-0.247,0-0.493-0.076-0.703-0.228c-0.421-0.305-0.599-0.846-0.439-1.341
			l5.766-17.858L40.471,62.882c-0.419-0.307-0.593-0.848-0.432-1.341c0.161-0.494,0.622-0.828,1.141-0.828h18.647l5.764-17.852
			c0.16-0.496,0.622-0.832,1.142-0.832c0.52,0,0.982,0.336,1.142,0.832l5.764,17.852h18.647c0.519,0,0.979,0.334,1.141,0.828
			c0.161,0.494-0.013,1.035-0.432,1.341L77.901,73.918l5.766,17.858c0.16,0.495-0.018,1.037-0.439,1.341
			c-0.421,0.305-0.991,0.304-1.412-0.004L66.732,82.084L51.648,93.113C51.438,93.267,51.189,93.344,50.94,93.344z M66.732,79.397
			c0.248,0,0.498,0.077,0.708,0.231l12.805,9.363L75.35,73.83c-0.159-0.493,0.016-1.032,0.434-1.337l12.827-9.378H72.764
			c-0.521,0-0.982-0.336-1.142-0.832l-4.89-15.146l-4.89,15.146c-0.16,0.496-0.622,0.832-1.142,0.832H44.854l12.827,9.378
			c0.417,0.306,0.592,0.845,0.434,1.337l-4.896,15.162l12.805-9.363C66.234,79.474,66.483,79.397,66.732,79.397z"/>
	</g>
	<g>
		<polygon style="fill:#FFC847;" points="66.732,62.197 68.551,67.831 74.438,67.831 69.675,71.313 71.494,76.947 66.732,73.465 
			61.97,76.947 63.789,71.313 59.027,67.831 64.913,67.831 		"/>
	</g>
	<g>
		<g>
			<g>
				<g>
					<path style="fill:#FFC847;" d="M66.732,36.93c-0.663,0-1.2-0.538-1.2-1.2V24.442c0-0.663,0.538-1.2,1.2-1.2
						c0.663,0,1.2,0.538,1.2,1.2V35.73C67.932,36.393,67.395,36.93,66.732,36.93z"/>
				</g>
				<g>
					<path style="fill:#FFC847;" d="M66.732,8.482c-0.663,0-1.2-0.538-1.2-1.2V1.2c0-0.663,0.538-1.2,1.2-1.2
						c0.663,0,1.2,0.538,1.2,1.2v6.082C67.932,7.944,67.395,8.482,66.732,8.482z"/>
				</g>
				<g>
					<path style="fill:#FFC847;" d="M66.732,19.642c-0.663,0-1.2-0.538-1.2-1.2v-6.081c0-0.663,0.538-1.2,1.2-1.2
						c0.663,0,1.2,0.538,1.2,1.2v6.081C67.932,19.104,67.395,19.642,66.732,19.642z"/>
				</g>
			</g>
			<g>
				<g>
					<path style="fill:#FFC847;" d="M66.732,110.222c-0.663,0-1.2-0.538-1.2-1.2V97.734c0-0.663,0.538-1.2,1.2-1.2
						c0.663,0,1.2,0.538,1.2,1.2v11.288C67.932,109.684,67.395,110.222,66.732,110.222z"/>
				</g>
				<g>
					<path style="fill:#FFC847;" d="M66.732,133.464c-0.663,0-1.2-0.538-1.2-1.2v-6.081c0-0.662,0.538-1.2,1.2-1.2
						c0.663,0,1.2,0.538,1.2,1.2v6.081C67.932,132.926,67.395,133.464,66.732,133.464z"/>
				</g>
				<g>
					<path style="fill:#FFC847;" d="M66.732,122.304c-0.663,0-1.2-0.538-1.2-1.2v-6.081c0-0.663,0.538-1.2,1.2-1.2
						c0.663,0,1.2,0.538,1.2,1.2v6.081C67.932,121.766,67.395,122.304,66.732,122.304z"/>
				</g>
			</g>
		</g>
		<g>
			<g>
				<g>
					<path style="fill:#FFC847;" d="M35.73,67.932H24.442c-0.663,0-1.2-0.538-1.2-1.2c0-0.663,0.538-1.2,1.2-1.2H35.73
						c0.663,0,1.2,0.538,1.2,1.2C36.93,67.395,36.393,67.932,35.73,67.932z"/>
				</g>
				<g>
					<path style="fill:#FFC847;" d="M7.282,67.932H1.2c-0.663,0-1.2-0.538-1.2-1.2c0-0.663,0.538-1.2,1.2-1.2h6.082
						c0.663,0,1.2,0.538,1.2,1.2C8.482,67.395,7.944,67.932,7.282,67.932z"/>
				</g>
				<g>
					<path style="fill:#FFC847;" d="M18.442,67.932h-6.081c-0.663,0-1.2-0.538-1.2-1.2c0-0.663,0.538-1.2,1.2-1.2h6.081
						c0.663,0,1.2,0.538,1.2,1.2C19.642,67.395,19.105,67.932,18.442,67.932z"/>
				</g>
			</g>
			<g>
				<g>
					<path style="fill:#FFC847;" d="M109.022,67.932H97.734c-0.663,0-1.2-0.538-1.2-1.2c0-0.663,0.538-1.2,1.2-1.2h11.288
						c0.663,0,1.2,0.538,1.2,1.2C110.222,67.395,109.684,67.932,109.022,67.932z"/>
				</g>
				<g>
					<path style="fill:#FFC847;" d="M132.264,67.932h-6.081c-0.663,0-1.2-0.538-1.2-1.2c0-0.663,0.538-1.2,1.2-1.2h6.081
						c0.663,0,1.2,0.538,1.2,1.2C133.464,67.395,132.926,67.932,132.264,67.932z"/>
				</g>
				<g>
					<path style="fill:#FFC847;" d="M121.104,67.932h-6.081c-0.663,0-1.2-0.538-1.2-1.2c0-0.663,0.538-1.2,1.2-1.2h6.081
						c0.663,0,1.2,0.538,1.2,1.2C122.304,67.395,121.766,67.932,121.104,67.932z"/>
				</g>
			</g>
		</g>
	</g>
	<g>
		<g>
			<g>
				<g>
					<path style="fill:#FFC847;" d="M44.811,46.011c-0.307,0-0.614-0.117-0.849-0.352l-7.982-7.982
						c-0.469-0.469-0.469-1.229,0-1.697c0.469-0.469,1.229-0.469,1.697,0l7.981,7.982c0.469,0.469,0.469,1.229,0,1.697
						C45.425,45.894,45.118,46.011,44.811,46.011z"/>
				</g>
				<g>
					<path style="fill:#FFC847;" d="M24.694,25.895c-0.307,0-0.614-0.117-0.849-0.352l-4.3-4.3c-0.469-0.469-0.469-1.229,0-1.697
						c0.469-0.469,1.229-0.469,1.697,0l4.3,4.3c0.469,0.469,0.469,1.229,0,1.697C25.309,25.777,25.001,25.895,24.694,25.895z"/>
				</g>
				<g>
					<path style="fill:#FFC847;" d="M32.586,33.786c-0.307,0-0.614-0.117-0.849-0.352l-4.3-4.3c-0.469-0.469-0.469-1.229,0-1.697
						c0.469-0.469,1.229-0.469,1.697,0l4.3,4.3c0.469,0.469,0.469,1.229,0,1.697C33.2,33.669,32.893,33.786,32.586,33.786z"/>
				</g>
			</g>
			<g>
				<g>
					<path style="fill:#FFC847;" d="M96.635,97.836c-0.307,0-0.614-0.117-0.849-0.352l-7.981-7.981
						c-0.469-0.469-0.469-1.229,0-1.697c0.469-0.469,1.228-0.469,1.697,0l7.982,7.981c0.469,0.469,0.469,1.229,0,1.697
						C97.25,97.718,96.942,97.836,96.635,97.836z"/>
				</g>
				<g>
					<path style="fill:#FFC847;" d="M113.07,114.27c-0.307,0-0.614-0.117-0.849-0.352l-4.3-4.3c-0.469-0.469-0.469-1.229,0-1.697
						c0.469-0.469,1.229-0.469,1.697,0l4.3,4.3c0.469,0.469,0.469,1.229,0,1.697C113.684,114.153,113.377,114.27,113.07,114.27z"/>
				</g>
				<g>
					<path style="fill:#FFC847;" d="M105.179,106.379c-0.307,0-0.614-0.117-0.849-0.352l-4.3-4.3c-0.469-0.469-0.469-1.229,0-1.697
						c0.469-0.469,1.229-0.469,1.697,0l4.3,4.3c0.468,0.469,0.469,1.229,0,1.697C105.793,106.261,105.486,106.379,105.179,106.379z"
						/>
				</g>
			</g>
		</g>
		<g>
			<g>
				<g>
					<path style="fill:#FFC847;" d="M36.829,97.836c-0.307,0-0.614-0.117-0.849-0.352c-0.469-0.469-0.469-1.229,0-1.697l7.982-7.981
						c0.469-0.469,1.228-0.469,1.697,0c0.469,0.469,0.469,1.229,0,1.697l-7.981,7.981C37.443,97.718,37.136,97.836,36.829,97.836z"
						/>
				</g>
				<g>
					<path style="fill:#FFC847;" d="M20.394,114.27c-0.307,0-0.614-0.117-0.849-0.352c-0.469-0.469-0.469-1.229,0-1.697l4.3-4.3
						c0.469-0.469,1.228-0.469,1.697,0c0.469,0.469,0.468,1.229,0,1.697l-4.3,4.3C21.008,114.153,20.701,114.27,20.394,114.27z"/>
				</g>
				<g>
					<path style="fill:#FFC847;" d="M28.286,106.379c-0.307,0-0.614-0.117-0.849-0.352c-0.469-0.469-0.469-1.229,0-1.697l4.3-4.3
						c0.469-0.469,1.229-0.469,1.697,0c0.469,0.469,0.468,1.229,0,1.697l-4.3,4.3C28.9,106.261,28.593,106.379,28.286,106.379z"/>
				</g>
			</g>
			<g>
				<g>
					<path style="fill:#FFC847;" d="M88.654,46.011c-0.307,0-0.614-0.117-0.849-0.352c-0.469-0.469-0.469-1.229,0-1.697l7.981-7.982
						c0.469-0.469,1.229-0.469,1.697,0c0.469,0.469,0.469,1.229,0,1.697l-7.982,7.982C89.268,45.894,88.961,46.011,88.654,46.011z"
						/>
				</g>
				<g>
					<path style="fill:#FFC847;" d="M108.77,25.895c-0.307,0-0.614-0.117-0.849-0.352c-0.468-0.469-0.469-1.228,0-1.697l4.3-4.3
						c0.469-0.469,1.229-0.469,1.697,0c0.468,0.469,0.469,1.229,0,1.697l-4.3,4.3C109.384,25.777,109.077,25.895,108.77,25.895z"/>
				</g>
				<g>
					<path style="fill:#FFC847;" d="M100.878,33.786c-0.307,0-0.614-0.117-0.849-0.352c-0.469-0.469-0.469-1.229,0-1.697l4.3-4.3
						c0.469-0.469,1.229-0.469,1.697,0c0.469,0.469,0.469,1.229,0,1.697l-4.3,4.3C101.493,33.669,101.186,33.786,100.878,33.786z"/>
				</g>
			</g>
		</g>
	</g>
</g>
</svg>